<svg width="22" height="13" viewBox="0 0 22 13" fill="none" xmlns="http://www.w3.org/2000/svg"><path d="M.805 6.406c0 1.024.187 1.969.562 2.82.383.852.899 1.532 1.563 2.055a4.108 4.108 0 002.218.875v-1.758c-1.453-.359-2.46-1.757-2.46-4 0-2.226 1.007-3.64 2.46-4V.641a4.06 4.06 0 00-2.218.882c-.664.524-1.18 1.211-1.563 2.063-.375.852-.562 1.797-.562 2.82zM6.402 8.32c.032 2.592 2.144 3.872 4.736 3.872 1.344 0 2.448-.256 3.328-.784.88-.528 1.312-1.424 1.312-2.672-.064-2.336-1.6-2.944-4.24-3.392-1.76-.288-2.736-.608-2.8-1.6 0-1.024.96-1.536 2.144-1.536 1.536 0 2.432.784 2.496 2.32l2.032-.352C15.17 1.68 13.474.608 10.898.608c-2.16 0-4.192.944-4.192 3.232.048 2.064 1.568 2.832 3.84 3.328.128.032.448.096.944.176 1.52.288 2.16.4 2.24 1.472 0 1.232-1.024 1.76-2.576 1.76-1.568 0-2.688-.864-2.688-2.48l-2.064.224zM21.43 6.39c0-1.023-.188-1.96-.57-2.812-.376-.851-.891-1.539-1.555-2.055a4.06 4.06 0 00-2.22-.882v1.757c1.454.36 2.462 1.758 2.462 4 0 2.227-1.008 3.641-2.461 4v1.758a4.06 4.06 0 002.219-.883c.664-.523 1.18-1.21 1.554-2.062.383-.852.57-1.797.57-2.82z" fill="#302D2D"/></svg>