<svg width="79" height="13" viewBox="0 0 79 13" fill="none" xmlns="http://www.w3.org/2000/svg"><path d="M.805 6.406c0 1.024.187 1.969.562 2.82.383.852.899 1.532 1.563 2.055a4.108 4.108 0 002.218.875v-1.758c-1.453-.359-2.46-1.757-2.46-4 0-2.226 1.007-3.64 2.46-4V.641a4.06 4.06 0 00-2.218.882c-.664.524-1.18 1.211-1.563 2.063-.375.852-.562 1.797-.562 2.82zM6.402 8.32c.032 2.592 2.144 3.872 4.736 3.872 1.344 0 2.448-.256 3.328-.784.88-.528 1.312-1.424 1.312-2.672-.064-2.336-1.6-2.944-4.24-3.392-1.76-.288-2.736-.608-2.8-1.6 0-1.024.96-1.536 2.144-1.536 1.536 0 2.432.784 2.496 2.32l2.032-.352C15.17 1.68 13.474.608 10.898.608c-2.16 0-4.192.944-4.192 3.232.048 2.064 1.568 2.832 3.84 3.328.128.032.448.096.944.176 1.52.288 2.16.4 2.24 1.472 0 1.232-1.024 1.76-2.576 1.76-1.568 0-2.688-.864-2.688-2.48l-2.064.224zM17.512 12h2V7.712h1.968c1.712 0 3.04-.224 3.92-1.232.449-.512.673-1.248.673-2.208 0-1.936-1.009-2.912-2.337-3.232-.655-.16-1.392-.24-2.24-.24h-3.983V12zm2-5.888V2.416h1.953c1.136 0 1.776.048 2.24.608.24.272.368.688.368 1.248-.064 1.68-1.04 1.84-2.625 1.84h-1.936zm8.03 2.176c0 2.544 1.583 3.904 4.544 3.904 2.96 0 4.56-1.36 4.56-3.904V.8h-2v7.408c0 1.552-1.12 2.32-2.56 2.32-1.456 0-2.544-.768-2.544-2.32V.8h-2v7.488zM41.51 12h2V2.496h3.648V.8h-9.28v1.696h3.632V12zm6.971 0h1.904V6.288c0-.288-.016-.72-.032-1.312a51.099 51.099 0 00-.064-1.68h.032c.288.688.752 1.6 1.392 2.736L55.09 12h2.288V.8h-1.904v5.68c0 .336 0 .816.016 1.44s.048 1.168.064 1.632h-.016c-.304-.72-.8-1.68-1.472-2.88L50.737.8h-2.256V12zm11.297 0h2V.8h-2V12zm11.158 0h2.448l-4.592-6.544L73.32.8h-2.544l-4.592 4.816V.8h-2V12h2V8.128L67.4 6.88 70.936 12zm7.4-5.61c0-1.023-.188-1.96-.57-2.812-.375-.851-.891-1.539-1.555-2.055a4.06 4.06 0 00-2.219-.882v1.757c1.453.36 2.461 1.758 2.461 4 0 2.227-1.008 3.641-2.46 4v1.758a4.06 4.06 0 002.218-.883c.664-.523 1.18-1.21 1.555-2.062.382-.852.57-1.797.57-2.82z" fill="#302D2D"/></svg>