<svg data-name="Layer 1" xmlns="http://www.w3.org/2000/svg" viewBox="0 0 1500 1500"><path d="M582.61 701.67c6.57-14.62 15.43-26.43 26.83-35.42a69.76 69.76 0 0138.11-15.16v30.19c-25 6.17-42.26 30.46-42.26 68.7 0 38.5 17.3 62.52 42.26 68.69v30.19a70.58 70.58 0 01-38.11-15c-11.4-9-20.26-20.66-26.83-35.28S573 767.69 573 750.11s3.17-33.81 9.61-48.44zm121.92 77.46c0 27.75 19.23 42.59 46.16 42.59 26.66 0 44.24-9.07 44.24-30.23-1.37-18.41-12.36-20.33-38.47-25.28-8.52-1.37-14-2.47-16.21-3-39-8.52-65.13-21.71-66-57.16 0-39.29 34.9-55.51 72-55.51 44.25 0 73.38 18.42 77.5 61.28l-34.9 6.05C787.79 691.47 772.4 678 746 678c-20.33 0-36.82 8.8-36.82 26.38 1.1 17 17.86 22.54 48.09 27.48 45.34 7.7 71.72 18.14 72.82 58.26 0 21.43-7.42 36.82-22.54 45.89s-34.07 13.47-57.15 13.47c-44.52 0-80.79-22-81.34-66.5zm212.73 19.15c-6.44 14.62-15.3 26.43-26.7 35.42a69.76 69.76 0 01-38.11 15.16v-30.19c25-6.17 42.26-30.45 42.26-68.69 0-38.51-17.3-62.53-42.26-68.7v-30.19a69.76 69.76 0 0138.11 15.16c11.4 8.86 20.26 20.66 26.7 35.29s9.79 30.73 9.79 48.3-3.22 33.81-9.79 48.44z" fill="#302d2d"/></svg>