<svg width="22" height="13" viewBox="0 0 22 13" fill="none" xmlns="http://www.w3.org/2000/svg">
<path d="M0.804688 6.40625C0.804688 7.42969 0.992188 8.375 1.36719 9.22656C1.75 10.0781 2.26562 10.7578 2.92969 11.2812C3.59375 11.7969 4.32812 12.0859 5.14844 12.1562V10.3984C3.69531 10.0391 2.6875 8.64062 2.6875 6.39844C2.6875 4.17188 3.69531 2.75781 5.14844 2.39844V0.640625C4.32812 0.710938 3.59375 1 2.92969 1.52344C2.26562 2.04688 1.75 2.73438 1.36719 3.58594C0.992188 4.4375 0.804688 5.38281 0.804688 6.40625ZM6.40188 8.32C6.43388 10.912 8.54588 12.192 11.1379 12.192C12.4819 12.192 13.5859 11.936 14.4659 11.408C15.3459 10.88 15.7779 9.984 15.7779 8.736C15.7139 6.4 14.1779 5.792 11.5379 5.344C9.77788 5.056 8.80188 4.736 8.73788 3.744C8.73788 2.72 9.69788 2.208 10.8819 2.208C12.4179 2.208 13.3139 2.992 13.3779 4.528L15.4099 4.176C15.1699 1.68 13.4739 0.608 10.8979 0.608C8.73788 0.608 6.70588 1.552 6.70588 3.84C6.75388 5.904 8.27387 6.672 10.5459 7.168C10.6739 7.2 10.9939 7.264 11.4899 7.344C13.0099 7.632 13.6499 7.744 13.7299 8.816C13.7299 10.048 12.7059 10.576 11.1539 10.576C9.58588 10.576 8.46588 9.712 8.46588 8.096L6.40188 8.32ZM21.4297 6.39062C21.4297 5.36719 21.2422 4.42969 20.8594 3.57812C20.4844 2.72656 19.9688 2.03906 19.3047 1.52344C18.6406 1 17.9062 0.710938 17.0859 0.640625V2.39844C18.5391 2.75781 19.5469 4.15625 19.5469 6.39844C19.5469 8.625 18.5391 10.0391 17.0859 10.3984V12.1562C17.9062 12.0859 18.6406 11.7969 19.3047 11.2734C19.9688 10.75 20.4844 10.0625 20.8594 9.21094C21.2422 8.35938 21.4297 7.41406 21.4297 6.39062Z" fill="#302D2D"/>
</svg>
