<svg width="79" height="13" viewBox="0 0 79 13" fill="none" xmlns="http://www.w3.org/2000/svg">
<path d="M0.804688 6.40625C0.804688 7.42969 0.992188 8.375 1.36719 9.22656C1.75 10.0781 2.26562 10.7578 2.92969 11.2812C3.59375 11.7969 4.32812 12.0859 5.14844 12.1562V10.3984C3.69531 10.0391 2.6875 8.64062 2.6875 6.39844C2.6875 4.17188 3.69531 2.75781 5.14844 2.39844V0.640625C4.32812 0.710938 3.59375 1 2.92969 1.52344C2.26562 2.04688 1.75 2.73438 1.36719 3.58594C0.992188 4.4375 0.804688 5.38281 0.804688 6.40625ZM6.40188 8.32C6.43388 10.912 8.54588 12.192 11.1379 12.192C12.4819 12.192 13.5859 11.936 14.4659 11.408C15.3459 10.88 15.7779 9.984 15.7779 8.736C15.7139 6.4 14.1779 5.792 11.5379 5.344C9.77788 5.056 8.80188 4.736 8.73788 3.744C8.73788 2.72 9.69788 2.208 10.8819 2.208C12.4179 2.208 13.3139 2.992 13.3779 4.528L15.4099 4.176C15.1699 1.68 13.4739 0.608 10.8979 0.608C8.73788 0.608 6.70588 1.552 6.70588 3.84C6.75388 5.904 8.27387 6.672 10.5459 7.168C10.6739 7.2 10.9939 7.264 11.4899 7.344C13.0099 7.632 13.6499 7.744 13.7299 8.816C13.7299 10.048 12.7059 10.576 11.1539 10.576C9.58588 10.576 8.46588 9.712 8.46588 8.096L6.40188 8.32ZM17.5125 12H19.5125V7.712H21.4805C23.1925 7.712 24.5205 7.488 25.4005 6.48C25.8485 5.968 26.0725 5.232 26.0725 4.272C26.0725 2.336 25.0645 1.36 23.7365 1.04C23.0805 0.879999 22.3445 0.799999 21.4965 0.799999H17.5125V12ZM19.5125 6.112V2.416H21.4645C22.6005 2.416 23.2405 2.464 23.7045 3.024C23.9445 3.296 24.0725 3.712 24.0725 4.272C24.0085 5.952 23.0325 6.112 21.4485 6.112H19.5125ZM27.5415 8.288C27.5415 10.832 29.1255 12.192 32.0855 12.192C35.0455 12.192 36.6455 10.832 36.6455 8.288V0.799999H34.6455V8.208C34.6455 9.76 33.5255 10.528 32.0855 10.528C30.6295 10.528 29.5415 9.76 29.5415 8.208V0.799999H27.5415V8.288ZM41.51 12H43.51V2.496H47.158V0.799999H37.878V2.496H41.51V12ZM48.4813 12H50.3853V6.288C50.3853 6 50.3693 5.568 50.3533 4.976C50.3373 4.384 50.3213 3.824 50.2893 3.296H50.3213C50.6093 3.984 51.0733 4.896 51.7133 6.032L55.0893 12H57.3773V0.799999H55.4733V6.48C55.4733 6.816 55.4733 7.296 55.4893 7.92C55.5052 8.544 55.5373 9.088 55.5533 9.552H55.5373C55.2333 8.832 54.7373 7.872 54.0653 6.672L50.7373 0.799999H48.4813V12ZM59.7781 12H61.7781V0.799999H59.7781V12ZM70.9364 12H73.3844L68.7924 5.456L73.3204 0.799999H70.7764L66.1844 5.616V0.799999H64.1844V12H66.1844V8.128L67.4004 6.88L70.9364 12ZM78.3359 6.39062C78.3359 5.36719 78.1484 4.42969 77.7656 3.57812C77.3906 2.72656 76.875 2.03906 76.2109 1.52344C75.5469 1 74.8125 0.710938 73.9922 0.640625V2.39844C75.4453 2.75781 76.4531 4.15625 76.4531 6.39844C76.4531 8.625 75.4453 10.0391 73.9922 10.3984V12.1562C74.8125 12.0859 75.5469 11.7969 76.2109 11.2734C76.875 10.75 77.3906 10.0625 77.7656 9.21094C78.1484 8.35938 78.3359 7.41406 78.3359 6.39062Z" fill="#302D2D"/>
</svg>
